<svg width="20" height="18" viewBox="0 0 20 18" fill="none" xmlns="http://www.w3.org/2000/svg">
<path d="M20 2.79749C19.2642 3.12416 18.4733 3.34415 17.6433 3.44332C18.4908 2.93582 19.1417 2.13165 19.4475 1.17332C18.655 1.64332 17.7767 1.98499 16.8417 2.16915C16.0942 1.37165 15.0267 0.873322 13.8467 0.873322C11.1975 0.873322 9.25083 3.34499 9.84917 5.91082C6.44 5.73999 3.41667 4.10665 1.3925 1.62415C0.3175 3.46832 0.835 5.88082 2.66167 7.10249C1.99 7.08082 1.35667 6.89666 0.804167 6.58915C0.759167 8.48999 2.12167 10.2683 4.095 10.6642C3.5175 10.8208 2.885 10.8575 2.24167 10.7342C2.76333 12.3642 4.27833 13.55 6.075 13.5833C4.35 14.9358 2.17667 15.54 0 15.2833C1.81583 16.4475 3.97333 17.1267 6.29 17.1267C13.9083 17.1267 18.2125 10.6925 17.9525 4.92165C18.7542 4.34249 19.45 3.61999 20 2.79749Z" fill="#836EBE"/>
</svg>
